STARTFONT 2.1
FONT -Adobe-ITC Lubalin Graph-Demi-O-Normal--18-180-75-75-P-109-ISO8859-1
SIZE 18 75 75
FONTBOUNDINGBOX 25 23 -2 -4

STARTPROPERTIES 30
FOUNDRY "Adobe"
FAMILY_NAME "ITC Lubalin Graph"
WEIGHT_NAME "Demi"
SLANT "O"
SETWIDTH_NAME "Normal"
ADD_STYLE_NAME ""
PIXEL_SIZE 18
POINT_SIZE 180
RESOLUTION_X 75
RESOLUTION_Y 75
SPACING "P"
AVERAGE_WIDTH 109
CHARSET_REGISTRY "ISO8859"
CHARSET_ENCODING "1"
CAP_HEIGHT 14
X_HEIGHT 10
FACE_NAME "ITC LubalinGraph Demi Oblique"
COPYRIGHT "Copyright (c) 1984, 1987 Adobe Systems Incorporated. All Rights Reserved. Copyright (c) 1988, 1991 Digital Equipment Corporation. All Rights Reserved."
NOTICE "ITC Lubalin Graph is a registered trademark of International Typeface Corporation."
_DEC_DEVICE_FONTNAMES "PS=LubalinGraph-DemiOblique"
_DEC_PRODUCTINFO "DECwindows Fonts V2.2, 07-Nov-1991"
RELATIVE_SETWIDTH 50
RELATIVE_WEIGHT 60
CHARSET_COLLECTIONS "ASCII ISO8859-1 ADOBE-STANDARD"
FULL_NAME "ITC Lubalin Graph Demi Oblique"
WEIGHT 10
QUAD_WIDTH 11
DEFAULT_CHAR 32
FONT_DESCENT 4
FONT_ASCENT 17
ENDPROPERTIES

CHARS 191

STARTCHAR space
ENCODING 32
SWIDTH 300 0
DWIDTH 4 0
BBX 1 1 0 0
BITMAP
00
ENDCHAR

STARTCHAR exclam
ENCODING 33
SWIDTH 200 0
DWIDTH 5 0
BBX 5 14 1 0
BITMAP
38
38
38
30
30
30
70
60
60
60
00
E0
E0
E0
ENDCHAR

STARTCHAR quotedbl
ENCODING 34
SWIDTH 400 0
DWIDTH 8 0
BBX 6 6 2 8
BITMAP
6C
6C
6C
48
D8
D8
ENDCHAR

STARTCHAR numbersign
ENCODING 35
SWIDTH 660 0
DWIDTH 12 0
BBX 10 14 1 0
BITMAP
0480
0480
0900
0900
7FC0
7FC0
1200
1200
FF80
FF80
2400
2400
4800
4800
ENDCHAR

STARTCHAR dollar
ENCODING 36
SWIDTH 580 0
DWIDTH 11 0
BBX 11 17 1 -2
BITMAP
0300
0300
0F60
1FE0
38C0
38C0
3C00
1F00
0F80
03C0
01C0
61C0
E380
FF80
DE00
1800
1800
ENDCHAR

STARTCHAR percent
ENCODING 37
SWIDTH 860 0
DWIDTH 16 0
BBX 15 14 1 0
BITMAP
1C06
3E0C
6318
6330
6360
3EC0
1D80
0370
06F8
0D8C
198C
318C
60F8
C070
ENDCHAR

STARTCHAR ampersand
ENCODING 38
SWIDTH 720 0
DWIDTH 14 0
BBX 13 14 0 0
BITMAP
0780
0FC0
1CE0
1CE0
1FC0
0F98
1E38
3F78
73E0
E3C0
E1C0
F3E0
7F70
3E20
ENDCHAR

STARTCHAR quoteright
ENCODING 39
SWIDTH 200 0
DWIDTH 4 0
BBX 4 6 1 8
BITMAP
70
70
70
30
60
C0
ENDCHAR

STARTCHAR parenleft
ENCODING 40
SWIDTH 360 0
DWIDTH 7 0
BBX 7 16 1 -2
BITMAP
06
1C
38
30
60
60
E0
C0
C0
C0
C0
E0
60
70
30
10
ENDCHAR

STARTCHAR parenright
ENCODING 41
SWIDTH 360 0
DWIDTH 7 0
BBX 6 16 0 -2
BITMAP
20
30
38
18
0C
0C
0C
0C
0C
0C
18
18
30
70
E0
C0
ENDCHAR

STARTCHAR asterisk
ENCODING 42
SWIDTH 360 0
DWIDTH 7 0
BBX 5 6 2 8
BITMAP
50
70
F8
F8
70
50
ENDCHAR

STARTCHAR plus
ENCODING 43
SWIDTH 660 0
DWIDTH 12 0
BBX 10 10 1 0
BITMAP
0600
0600
0600
0C00
FFC0
FFC0
0C00
1800
1800
1800
ENDCHAR

STARTCHAR comma
ENCODING 44
SWIDTH 300 0
DWIDTH 5 0
BBX 4 6 0 -3
BITMAP
70
70
70
60
C0
80
ENDCHAR

STARTCHAR minus
ENCODING 45
SWIDTH 660 0
DWIDTH 12 0
BBX 9 2 1 4
BITMAP
FF80
FF80
ENDCHAR

STARTCHAR period
ENCODING 46
SWIDTH 300 0
DWIDTH 6 0
BBX 3 3 1 0
BITMAP
E0
E0
E0
ENDCHAR

STARTCHAR slash
ENCODING 47
SWIDTH 580 0
DWIDTH 11 0
BBX 12 16 -1 -2
BITMAP
0010
0030
0060
0040
00C0
0180
0300
0200
0600
0C00
1800
1000
3000
6000
C000
8000
ENDCHAR

STARTCHAR zero
ENCODING 48
SWIDTH 580 0
DWIDTH 11 0
BBX 10 14 1 0
BITMAP
0F00
3F80
3BC0
70C0
60C0
60C0
E1C0
E1C0
C180
C180
C380
F700
7F00
3C00
ENDCHAR

STARTCHAR one
ENCODING 49
SWIDTH 580 0
DWIDTH 11 0
BBX 7 14 2 0
BITMAP
3E
3E
0E
0C
1C
1C
1C
1C
18
38
38
38
FE
FE
ENDCHAR

STARTCHAR two
ENCODING 50
SWIDTH 580 0
DWIDTH 11 0
BBX 10 14 1 0
BITMAP
0F00
3F80
3BC0
71C0
71C0
01C0
0380
0700
1E00
3800
7180
E380
FF00
FF00
ENDCHAR

STARTCHAR three
ENCODING 51
SWIDTH 580 0
DWIDTH 11 0
BBX 10 14 1 0
BITMAP
0F00
3F80
3BC0
31C0
01C0
0380
1E00
1F00
0780
0380
C380
E700
FF00
7C00
ENDCHAR

STARTCHAR four
ENCODING 52
SWIDTH 580 0
DWIDTH 11 0
BBX 10 14 0 0
BITMAP
01C0
03C0
07C0
0DC0
0D80
1980
3B80
7380
FFC0
FFC0
0300
0700
0F80
0F80
ENDCHAR

STARTCHAR five
ENCODING 53
SWIDTH 580 0
DWIDTH 11 0
BBX 10 14 1 0
BITMAP
1FC0
1FC0
1F80
3800
3000
7F00
7F80
73C0
01C0
01C0
E380
E380
FF00
7E00
ENDCHAR

STARTCHAR six
ENCODING 54
SWIDTH 580 0
DWIDTH 11 0
BBX 10 14 1 0
BITMAP
01C0
03C0
0780
0F00
1C00
3F00
7F80
7380
E1C0
E1C0
E1C0
7380
7F80
3E00
ENDCHAR

STARTCHAR seven
ENCODING 55
SWIDTH 580 0
DWIDTH 11 0
BBX 10 14 2 0
BITMAP
7FC0
7FC0
71C0
7180
0380
0700
0E00
0E00
1C00
3800
7000
7000
E000
E000
ENDCHAR

STARTCHAR eight
ENCODING 56
SWIDTH 580 0
DWIDTH 11 0
BBX 10 14 1 0
BITMAP
0F00
1F80
39C0
39C0
39C0
1F80
1F00
7B80
E1C0
E1C0
E1C0
F3C0
7F80
3F00
ENDCHAR

STARTCHAR nine
ENCODING 57
SWIDTH 580 0
DWIDTH 11 0
BBX 10 14 1 0
BITMAP
0E00
3F80
7380
E1C0
E1C0
E1C0
F3C0
7F80
3F00
0E00
3C00
7800
F000
E000
ENDCHAR

STARTCHAR colon
ENCODING 58
SWIDTH 300 0
DWIDTH 6 0
BBX 4 10 1 0
BITMAP
70
70
70
00
00
00
00
E0
E0
E0
ENDCHAR

STARTCHAR semicolon
ENCODING 59
SWIDTH 300 0
DWIDTH 5 0
BBX 5 13 0 -3
BITMAP
38
38
38
00
00
00
00
70
70
70
60
C0
80
ENDCHAR

STARTCHAR less
ENCODING 60
SWIDTH 660 0
DWIDTH 12 0
BBX 9 10 2 0
BITMAP
0080
0380
0E00
3800
C000
6000
3000
1800
0C00
0600
ENDCHAR

STARTCHAR equal
ENCODING 61
SWIDTH 660 0
DWIDTH 12 0
BBX 10 5 1 2
BITMAP
7FC0
7FC0
0000
FF80
FF80
ENDCHAR

STARTCHAR greater
ENCODING 62
SWIDTH 660 0
DWIDTH 12 0
BBX 10 10 0 0
BITMAP
2000
3800
0E00
0380
00C0
0380
0600
1800
7000
C000
ENDCHAR

STARTCHAR question
ENCODING 63
SWIDTH 540 0
DWIDTH 11 0
BBX 9 14 2 0
BITMAP
3E00
7F00
E380
E380
E380
0700
0E00
1C00
3800
3800
0000
7000
7000
7000
ENDCHAR

STARTCHAR at
ENCODING 64
SWIDTH 880 0
DWIDTH 16 0
BBX 14 14 1 0
BITMAP
07E0
1C38
3008
61AC
4764
CC44
8844
98C4
908C
D398
4EF0
6000
38E0
0F80
ENDCHAR

STARTCHAR A
ENCODING 65
SWIDTH 780 0
DWIDTH 13 0
BBX 13 14 0 0
BITMAP
03C0
03C0
01C0
03C0
07E0
06E0
0EE0
0C60
1FE0
3FF0
3870
7070
F8F8
F8F8
ENDCHAR

STARTCHAR B
ENCODING 66
SWIDTH 600 0
DWIDTH 12 0
BBX 11 14 0 0
BITMAP
3F80
3FC0
1CE0
18E0
38E0
39C0
3F00
3FC0
31E0
70E0
70E0
71E0
FFC0
FF80
ENDCHAR

STARTCHAR C
ENCODING 67
SWIDTH 760 0
DWIDTH 14 0
BBX 14 14 1 0
BITMAP
07CC
1FFC
3E7C
381C
7000
E000
E000
E000
E000
E038
7038
78F0
3FE0
0F80
ENDCHAR

STARTCHAR D
ENCODING 68
SWIDTH 740 0
DWIDTH 14 0
BBX 14 14 0 0
BITMAP
3FE0
3FF8
1C38
1C1C
181C
381C
381C
381C
381C
3038
7070
71F0
FFE0
FF80
ENDCHAR

STARTCHAR E
ENCODING 69
SWIDTH 580 0
DWIDTH 11 0
BBX 12 14 0 0
BITMAP
3FF0
3FF0
1C60
1C60
3800
3800
3F80
3F80
3800
7000
70C0
71C0
FF80
FF80
ENDCHAR

STARTCHAR F
ENCODING 70
SWIDTH 580 0
DWIDTH 11 0
BBX 12 14 0 0
BITMAP
3FF0
3FF0
1C70
1C70
1C00
3800
3F80
3F80
3800
7000
7000
7000
F800
F800
ENDCHAR

STARTCHAR G
ENCODING 71
SWIDTH 780 0
DWIDTH 15 0
BBX 14 14 1 0
BITMAP
07CC
1FFC
3E7C
381C
7000
E000
E000
E1FC
E1FC
E038
7038
7878
3FF0
0FB0
ENDCHAR

STARTCHAR H
ENCODING 72
SWIDTH 740 0
DWIDTH 14 0
BBX 15 14 0 0
BITMAP
3E3E
3E3E
1C1C
1C1C
1818
3838
3FF8
3FF8
3830
3030
7070
7070
F8F8
F8F8
ENDCHAR

STARTCHAR I
ENCODING 73
SWIDTH 340 0
DWIDTH 6 0
BBX 7 14 0 0
BITMAP
3E
3E
1C
1C
18
38
38
38
30
70
70
70
F8
F8
ENDCHAR

STARTCHAR J
ENCODING 74
SWIDTH 540 0
DWIDTH 10 0
BBX 11 14 0 0
BITMAP
03E0
03E0
01C0
01C0
0180
0380
0380
0380
0300
0700
E700
E700
7E00
3C00
ENDCHAR

STARTCHAR K
ENCODING 75
SWIDTH 720 0
DWIDTH 14 0
BBX 15 14 0 0
BITMAP
3E7E
3E7E
1C38
1C70
1CE0
1BC0
3F00
3F80
3BC0
31C0
70E0
7070
F9F8
F9F8
ENDCHAR

STARTCHAR L
ENCODING 76
SWIDTH 560 0
DWIDTH 10 0
BBX 10 14 0 0
BITMAP
3E00
3E00
1C00
1C00
3800
3800
3800
3800
3800
7000
71C0
71C0
FFC0
FFC0
ENDCHAR

STARTCHAR M
ENCODING 77
SWIDTH 960 0
DWIDTH 17 0
BBX 18 14 0 0
BITMAP
3E07C0
3E07C0
1E0F80
1F0F80
1F1F80
3B1B00
3B3300
3B3700
33F700
73C600
73CE00
71CE00
F99F00
F99F00
ENDCHAR

STARTCHAR N
ENCODING 78
SWIDTH 800 0
DWIDTH 15 0
BBX 16 14 0 0
BITMAP
3C1F
3E1F
1E0E
1F0E
1F0C
1B9C
3B9C
39D8
31D8
70F8
70F8
7078
F830
F830
ENDCHAR

STARTCHAR O
ENCODING 79
SWIDTH 780 0
DWIDTH 15 0
BBX 14 14 1 0
BITMAP
07C0
1FF0
3E78
3838
701C
E01C
E01C
E01C
E01C
E038
7070
79F0
3FE0
0F80
ENDCHAR

STARTCHAR P
ENCODING 80
SWIDTH 600 0
DWIDTH 11 0
BBX 12 14 0 0
BITMAP
3F80
3FE0
1CF0
1C70
1870
3870
38E0
3FC0
3F00
3000
7000
7000
F800
F800
ENDCHAR

STARTCHAR Q
ENCODING 81
SWIDTH 860 0
DWIDTH 16 0
BBX 15 14 1 0
BITMAP
07C0
1FF0
3E78
3838
701C
E01C
E01C
FE1C
FF9C
E7F8
70F0
78F6
3FFE
0F9E
ENDCHAR

STARTCHAR R
ENCODING 82
SWIDTH 640 0
DWIDTH 12 0
BBX 13 14 0 0
BITMAP
3FC0
3FF0
1C78
1C38
3838
3870
38F0
3FC0
3700
7380
7380
71C0
F9F0
F9F0
ENDCHAR

STARTCHAR S
ENCODING 83
SWIDTH 520 0
DWIDTH 11 0
BBX 11 14 0 0
BITMAP
0F60
1FE0
3DE0
38C0
3800
3C00
1F00
0F80
03C0
01C0
61C0
F3C0
FF80
DF00
ENDCHAR

STARTCHAR T
ENCODING 84
SWIDTH 600 0
DWIDTH 12 0
BBX 13 14 1 0
BITMAP
7FF8
7FF8
C730
C730
0700
0E00
0E00
0E00
0E00
0C00
1C00
1C00
7F00
7F00
ENDCHAR

STARTCHAR U
ENCODING 85
SWIDTH 700 0
DWIDTH 13 0
BBX 13 14 1 0
BITMAP
7CF8
7CF8
3870
3870
3060
70E0
70E0
70E0
E0C0
E1C0
E1C0
F380
7F80
3E00
ENDCHAR

STARTCHAR V
ENCODING 86
SWIDTH 740 0
DWIDTH 12 0
BBX 13 14 1 0
BITMAP
F8F8
F8F8
7070
70E0
70E0
71C0
39C0
3B80
3B80
3F00
1E00
1E00
1C00
1C00
ENDCHAR

STARTCHAR W
ENCODING 87
SWIDTH 1020 0
DWIDTH 17 0
BBX 17 14 1 0
BITMAP
F9CF80
F9CF80
71C700
73C700
73CE00
73CC00
76DC00
76DC00
36D800
3CF000
38F000
38F000
38E000
38E000
ENDCHAR

STARTCHAR X
ENCODING 88
SWIDTH 740 0
DWIDTH 14 0
BBX 15 14 0 0
BITMAP
3E3E
3E3E
1C1C
0E38
0770
07E0
03C0
0780
0FC0
1DE0
38E0
7070
F8F8
F8F8
ENDCHAR

STARTCHAR Y
ENCODING 89
SWIDTH 680 0
DWIDTH 13 0
BBX 13 14 1 0
BITMAP
F8F8
F8F8
7070
38E0
39C0
3B80
1F00
1E00
0E00
0C00
0C00
1C00
3E00
3E00
ENDCHAR

STARTCHAR Z
ENCODING 90
SWIDTH 560 0
DWIDTH 11 0
BBX 12 14 0 0
BITMAP
3FF0
3FF0
38E0
38E0
01C0
0380
0700
0E00
1C00
3800
71C0
F1C0
FFC0
FFC0
ENDCHAR

STARTCHAR bracketleft
ENCODING 91
SWIDTH 380 0
DWIDTH 7 0
BBX 8 17 0 -3
BITMAP
1F
1F
18
18
18
30
30
30
30
30
70
60
60
60
E0
F8
F8
ENDCHAR

STARTCHAR backslash
ENCODING 92
SWIDTH 620 0
DWIDTH 12 0
BBX 4 14 4 0
BITMAP
C0
C0
C0
C0
40
60
60
60
60
20
30
30
30
30
ENDCHAR

STARTCHAR bracketright
ENCODING 93
SWIDTH 380 0
DWIDTH 7 0
BBX 8 17 -1 -3
BITMAP
1F
1F
03
03
06
06
06
06
0C
0C
0C
0C
18
18
18
F8
F8
ENDCHAR

STARTCHAR asciicircum
ENCODING 94
SWIDTH 660 0
DWIDTH 13 0
BBX 10 9 1 5
BITMAP
0200
0700
0700
0D00
1980
1180
2080
60C0
C0C0
ENDCHAR

STARTCHAR underscore
ENCODING 95
SWIDTH 500 0
DWIDTH 10 0
BBX 10 2 0 -3
BITMAP
FFC0
FFC0
ENDCHAR

STARTCHAR quoteleft
ENCODING 96
SWIDTH 200 0
DWIDTH 4 0
BBX 4 6 1 8
BITMAP
30
60
C0
E0
E0
E0
ENDCHAR

STARTCHAR a
ENCODING 97
SWIDTH 660 0
DWIDTH 12 0
BBX 12 10 0 0
BITMAP
0FB0
3FF0
79F0
70E0
E0E0
E0C0
E1C0
F3C0
7FE0
3EE0
ENDCHAR

STARTCHAR b
ENCODING 98
SWIDTH 660 0
DWIDTH 12 0
BBX 12 14 0 0
BITMAP
3C00
3C00
1C00
1800
3BC0
3FE0
38F0
3870
7070
7070
70E0
71E0
FFC0
EF80
ENDCHAR

STARTCHAR c
ENCODING 99
SWIDTH 580 0
DWIDTH 11 0
BBX 11 10 0 0
BITMAP
0F60
3FE0
79E0
7000
6000
E000
E1C0
F1C0
7F80
3E00
ENDCHAR

STARTCHAR d
ENCODING 100
SWIDTH 660 0
DWIDTH 12 0
BBX 12 14 0 0
BITMAP
00F0
00F0
0070
0070
0F60
3FE0
79E0
70E0
60C0
E1C0
E1C0
F3C0
7FE0
3DE0
ENDCHAR

STARTCHAR e
ENCODING 101
SWIDTH 580 0
DWIDTH 11 0
BBX 11 10 0 0
BITMAP
0F80
3FC0
79E0
70E0
FFE0
FFC0
E000
F1C0
7F80
3E00
ENDCHAR

STARTCHAR f
ENCODING 102
SWIDTH 320 0
DWIDTH 6 0
BBX 7 14 0 0
BITMAP
06
0E
1E
18
7E
7E
38
38
30
70
70
70
F8
F8
ENDCHAR

STARTCHAR g
ENCODING 103
SWIDTH 660 0
DWIDTH 12 0
BBX 13 14 0 -4
BITMAP
0F78
3FF0
79E0
70E0
E0E0
E0C0
E1C0
F1C0
7FC0
3D80
0180
E380
FF00
7E00
ENDCHAR

STARTCHAR h
ENCODING 104
SWIDTH 640 0
DWIDTH 12 0
BBX 11 14 0 0
BITMAP
3C00
3C00
1C00
1800
19C0
3FE0
3DE0
38E0
30C0
30C0
71C0
71C0
FBE0
FBE0
ENDCHAR

STARTCHAR i
ENCODING 105
SWIDTH 300 0
DWIDTH 6 0
BBX 6 14 0 0
BITMAP
1C
1C
1C
00
78
78
38
38
30
70
70
70
F8
F8
ENDCHAR

STARTCHAR j
ENCODING 106
SWIDTH 280 0
DWIDTH 6 0
BBX 7 18 -1 -4
BITMAP
0E
0E
0E
00
3E
3E
1C
1C
1C
38
38
38
38
38
70
70
E0
C0
ENDCHAR

STARTCHAR k
ENCODING 107
SWIDTH 600 0
DWIDTH 11 0
BBX 12 14 0 0
BITMAP
3C00
3C00
1C00
1C00
18F0
39E0
3BC0
3F00
3E00
7600
7700
7380
FBC0
FBC0
ENDCHAR

STARTCHAR l
ENCODING 108
SWIDTH 300 0
DWIDTH 6 0
BBX 6 14 0 0
BITMAP
3C
3C
1C
1C
18
38
38
38
30
70
70
70
F8
F8
ENDCHAR

STARTCHAR m
ENCODING 109
SWIDTH 980 0
DWIDTH 18 0
BBX 17 10 0 0
BITMAP
73CF00
7FFF80
3CF380
38E380
30C300
71C700
71C700
71C700
FBEF80
FBEF80
ENDCHAR

STARTCHAR n
ENCODING 110
SWIDTH 640 0
DWIDTH 12 0
BBX 11 10 0 0
BITMAP
7B80
7FC0
3DE0
38E0
30C0
71C0
71C0
71C0
FBE0
FBE0
ENDCHAR

STARTCHAR o
ENCODING 111
SWIDTH 580 0
DWIDTH 11 0
BBX 11 10 0 0
BITMAP
0F80
3FC0
79E0
70E0
E0E0
E0E0
E1C0
F3C0
7F80
3E00
ENDCHAR

STARTCHAR p
ENCODING 112
SWIDTH 660 0
DWIDTH 12 0
BBX 13 14 -1 -4
BITMAP
3CE0
3FF0
1E78
1C38
1C38
1838
3870
3CF0
3FE0
33C0
7000
7000
F800
F800
ENDCHAR

STARTCHAR q
ENCODING 113
SWIDTH 660 0
DWIDTH 12 0
BBX 13 14 0 -4
BITMAP
0F78
3FF8
79E0
70E0
E0E0
E1C0
E1C0
F3C0
7F80
3D80
0380
0300
0780
0780
ENDCHAR

STARTCHAR r
ENCODING 114
SWIDTH 380 0
DWIDTH 8 0
BBX 8 10 0 0
BITMAP
77
7F
3F
38
30
30
70
70
F8
F8
ENDCHAR

STARTCHAR s
ENCODING 115
SWIDTH 460 0
DWIDTH 9 0
BBX 9 10 0 0
BITMAP
1D80
3F80
7380
7000
7E00
3F00
0700
E700
FE00
DC00
ENDCHAR

STARTCHAR t
ENCODING 116
SWIDTH 340 0
DWIDTH 6 0
BBX 6 14 1 0
BITMAP
38
38
38
30
FC
FC
70
70
70
60
E0
E0
F0
F0
ENDCHAR

STARTCHAR u
ENCODING 117
SWIDTH 640 0
DWIDTH 12 0
BBX 10 10 1 0
BITMAP
F3C0
F3C0
71C0
6180
6180
E380
E380
F700
7F80
3B80
ENDCHAR

STARTCHAR v
ENCODING 118
SWIDTH 600 0
DWIDTH 11 0
BBX 11 10 1 0
BITMAP
F9E0
F9E0
71C0
7380
7300
3700
3600
3C00
3C00
3800
ENDCHAR

STARTCHAR w
ENCODING 119
SWIDTH 880 0
DWIDTH 16 0
BBX 15 10 1 0
BITMAP
FB3E
FB3E
671C
6718
6FB8
6DB0
79E0
79E0
71C0
71C0
ENDCHAR

STARTCHAR x
ENCODING 120
SWIDTH 620 0
DWIDTH 12 0
BBX 13 10 0 0
BITMAP
7DF8
7DF8
38E0
1DC0
0F80
1F00
3B80
71C0
FBE0
FBE0
ENDCHAR

STARTCHAR y
ENCODING 121
SWIDTH 600 0
DWIDTH 10 0
BBX 12 14 0 -4
BITMAP
FDF0
FDF0
71C0
3180
3380
3300
3E00
3E00
1C00
1800
3800
3000
F800
F800
ENDCHAR

STARTCHAR z
ENCODING 122
SWIDTH 460 0
DWIDTH 9 0
BBX 9 10 0 0
BITMAP
3F80
7F80
6380
0700
1E00
3C00
7000
E300
FF00
FF00
ENDCHAR

STARTCHAR braceleft
ENCODING 123
SWIDTH 320 0
DWIDTH 6 0
BBX 6 17 0 -3
BITMAP
0C
18
18
30
30
30
30
60
C0
60
60
60
60
C0
C0
C0
60
ENDCHAR

STARTCHAR bar
ENCODING 124
SWIDTH 660 0
DWIDTH 12 0
BBX 4 14 5 0
BITMAP
30
30
30
30
30
60
60
60
60
C0
C0
C0
C0
C0
ENDCHAR

STARTCHAR braceright
ENCODING 125
SWIDTH 320 0
DWIDTH 7 0
BBX 6 17 1 -3
BITMAP
18
0C
0C
0C
0C
18
18
18
0C
30
30
30
30
30
60
60
C0
ENDCHAR

STARTCHAR asciitilde
ENCODING 126
SWIDTH 660 0
DWIDTH 13 0
BBX 11 3 1 5
BITMAP
3C60
7FC0
C780
ENDCHAR

STARTCHAR space
ENCODING 160
SWIDTH 300 0
DWIDTH 4 0
BBX 1 1 0 0
BITMAP
00
ENDCHAR

STARTCHAR exclamdown
ENCODING 161
SWIDTH 200 0
DWIDTH 5 0
BBX 5 14 0 -4
BITMAP
38
38
38
00
30
30
30
70
60
60
60
E0
E0
E0
ENDCHAR

STARTCHAR cent
ENCODING 162
SWIDTH 580 0
DWIDTH 11 0
BBX 8 12 2 1
BITMAP
0C
0C
3D
7F
E7
E0
E0
E7
FE
7C
30
30
ENDCHAR

STARTCHAR sterling
ENCODING 163
SWIDTH 680 0
DWIDTH 13 0
BBX 11 14 1 0
BITMAP
0F60
1FE0
38E0
38E0
3800
1800
FF00
FF00
1800
39C0
39C0
31C0
FF80
FF00
ENDCHAR

STARTCHAR currency
ENCODING 164
SWIDTH 580 0
DWIDTH 11 0
BBX 11 9 0 1
BITMAP
6F60
7FE0
3180
60C0
60C0
60C0
3180
FFC0
DCC0
ENDCHAR

STARTCHAR yen
ENCODING 165
SWIDTH 720 0
DWIDTH 14 0
BBX 13 14 1 0
BITMAP
F8F8
F8F8
7070
30E0
30C0
F9E0
FBE0
1F00
FFC0
FFC0
0C00
1C00
3E00
3E00
ENDCHAR

STARTCHAR brokenbar
ENCODING 166
SWIDTH 660 0
DWIDTH 12 0
BBX 4 14 5 0
BITMAP
30
30
30
20
60
60
00
00
60
60
40
C0
C0
C0
ENDCHAR

STARTCHAR section
ENCODING 167
SWIDTH 460 0
DWIDTH 10 0
BBX 9 17 0 -3
BITMAP
0E00
1F00
3B80
3180
3800
1C00
3E00
7700
6300
7700
3E00
1C00
0E00
C600
CE00
FC00
7800
ENDCHAR

STARTCHAR dieresis
ENCODING 168
SWIDTH 460 0
DWIDTH 9 0
BBX 6 3 3 11
BITMAP
CC
CC
CC
ENDCHAR

STARTCHAR copyright
ENCODING 169
SWIDTH 820 0
DWIDTH 16 0
BBX 14 14 1 0
BITMAP
07E0
1C38
3008
63CC
4644
CC44
8804
8804
88CC
8D88
C718
4030
70E0
1F80
ENDCHAR

STARTCHAR ordfeminine
ENCODING 170
SWIDTH 420 0
DWIDTH 9 0
BBX 8 9 1 5
BITMAP
3B
7F
66
66
7F
37
00
FE
FE
ENDCHAR

STARTCHAR guillemotleft
ENCODING 171
SWIDTH 360 0
DWIDTH 8 0
BBX 7 7 1 2
BITMAP
12
36
6C
D8
D8
6C
24
ENDCHAR

STARTCHAR logicalnot
ENCODING 172
SWIDTH 660 0
DWIDTH 12 0
BBX 9 6 1 1
BITMAP
FF80
FF80
0180
0100
0300
0300
ENDCHAR

STARTCHAR hyphen
ENCODING 173
SWIDTH 320 0
DWIDTH 6 0
BBX 5 2 0 3
BITMAP
F8
F8
ENDCHAR

STARTCHAR registered
ENCODING 174
SWIDTH 820 0
DWIDTH 16 0
BBX 14 14 1 0
BITMAP
07E0
1C38
3008
67CC
4464
CC64
88C4
8F84
990C
9188
D098
4030
70E0
1F80
ENDCHAR

STARTCHAR macron
ENCODING 175
SWIDTH 520 0
DWIDTH 10 0
BBX 7 2 3 12
BITMAP
FE
FE
ENDCHAR

STARTCHAR degree
ENCODING 176
SWIDTH 400 0
DWIDTH 7 0
BBX 6 6 1 8
BITMAP
38
6C
C4
8C
D8
70
ENDCHAR

STARTCHAR plusminus
ENCODING 177
SWIDTH 660 0
DWIDTH 12 0
BBX 10 11 0 0
BITMAP
0600
0600
0600
7FC0
7FC0
0C00
0C00
0C00
0000
FF80
FF80
ENDCHAR

STARTCHAR twosuperior
ENCODING 178
SWIDTH 348 0
DWIDTH 6 0
BBX 6 8 0 6
BITMAP
38
6C
4C
18
30
60
CC
FC
ENDCHAR

STARTCHAR threesuperior
ENCODING 179
SWIDTH 348 0
DWIDTH 6 0
BBX 6 8 0 6
BITMAP
38
6C
0C
38
10
18
98
F0
ENDCHAR

STARTCHAR acute
ENCODING 180
SWIDTH 460 0
DWIDTH 8 0
BBX 6 4 2 10
BITMAP
08
3C
F0
40
ENDCHAR

STARTCHAR mu
ENCODING 181
SWIDTH 640 0
DWIDTH 12 0
BBX 12 14 -1 -4
BITMAP
3CF0
3CF0
1C70
1860
1860
38E0
38E0
3DC0
7FE0
6EE0
6000
E000
C000
C000
ENDCHAR

STARTCHAR paragraph
ENCODING 182
SWIDTH 540 0
DWIDTH 11 0
BBX 10 17 1 -3
BITMAP
1FC0
7FC0
F980
F980
F980
F300
7300
3300
3300
2200
6600
6600
6600
6600
4400
CC00
CC00
ENDCHAR

STARTCHAR periodcentered
ENCODING 183
SWIDTH 300 0
DWIDTH 5 0
BBX 3 3 1 4
BITMAP
E0
E0
E0
ENDCHAR

STARTCHAR cedilla
ENCODING 184
SWIDTH 360 0
DWIDTH 7 0
BBX 4 4 1 -4
BITMAP
60
30
90
60
ENDCHAR

STARTCHAR onesuperior
ENCODING 185
SWIDTH 348 0
DWIDTH 6 0
BBX 4 8 1 6
BITMAP
70
30
30
30
60
60
60
F0
ENDCHAR

STARTCHAR ordmasculine
ENCODING 186
SWIDTH 360 0
DWIDTH 8 0
BBX 7 9 1 5
BITMAP
3C
7E
66
66
7E
38
00
FC
FC
ENDCHAR

STARTCHAR guillemotright
ENCODING 187
SWIDTH 360 0
DWIDTH 8 0
BBX 7 7 1 2
BITMAP
48
6C
36
36
6C
D8
90
ENDCHAR

STARTCHAR onequarter
ENCODING 188
SWIDTH 870 0
DWIDTH 16 0
BBX 13 14 2 0
BITMAP
70C0
30C0
3180
3180
6300
6300
6630
F670
0CB0
0D20
1B60
1BF8
3060
30F0
ENDCHAR

STARTCHAR onehalf
ENCODING 189
SWIDTH 870 0
DWIDTH 16 0
BBX 13 14 2 0
BITMAP
70C0
30C0
3180
3180
6300
6300
6670
F6D8
0C98
0C30
1860
18C0
3198
31F8
ENDCHAR

STARTCHAR threequarters
ENCODING 190
SWIDTH 870 0
DWIDTH 16 0
BBX 14 14 1 0
BITMAP
3860
6C60
0CC0
38C0
1180
1980
9B18
F338
0658
0690
0DB0
0DFC
1830
1878
ENDCHAR

STARTCHAR questiondown
ENCODING 191
SWIDTH 540 0
DWIDTH 10 0
BBX 9 14 0 -4
BITMAP
0380
0380
0380
0000
0700
0700
0E00
3C00
7000
E380
E380
E380
7F00
3E00
ENDCHAR

STARTCHAR Agrave
ENCODING 192
SWIDTH 780 0
DWIDTH 13 0
BBX 13 19 0 0
BITMAP
0400
0F00
03C0
0080
0000
03C0
03C0
01C0
03C0
07E0
06E0
0EE0
0C60
1FE0
3FF0
3870
7070
F8F8
F8F8
ENDCHAR

STARTCHAR Aacute
ENCODING 193
SWIDTH 780 0
DWIDTH 13 0
BBX 13 19 0 0
BITMAP
0010
0078
01E0
0080
0000
03C0
03C0
01C0
03C0
07E0
06E0
0EE0
0C60
1FE0
3FF0
3870
7070
F8F8
F8F8
ENDCHAR

STARTCHAR Acircumflex
ENCODING 194
SWIDTH 780 0
DWIDTH 13 0
BBX 13 19 0 0
BITMAP
0040
01E0
0370
0638
0000
03C0
03C0
01C0
03C0
07E0
06E0
0EE0
0C60
1FE0
3FF0
3870
7070
F8F8
F8F8
ENDCHAR

STARTCHAR Atilde
ENCODING 195
SWIDTH 780 0
DWIDTH 13 0
BBX 13 18 0 0
BITMAP
0310
07F0
0460
0000
03C0
03C0
01C0
03C0
07E0
06E0
0EE0
0C60
1FE0
3FF0
3870
7070
F8F8
F8F8
ENDCHAR

STARTCHAR Adieresis
ENCODING 196
SWIDTH 780 0
DWIDTH 13 0
BBX 13 18 0 0
BITMAP
0330
0330
0330
0000
03C0
03C0
01C0
03C0
07E0
06E0
0EE0
0C60
1FE0
3FF0
3870
7070
F8F8
F8F8
ENDCHAR

STARTCHAR Aring
ENCODING 197
SWIDTH 780 0
DWIDTH 13 0
BBX 13 19 0 0
BITMAP
01C0
0360
0220
0360
01C0
03C0
03C0
01C0
03C0
07E0
06E0
0EE0
0C60
1FE0
3FF0
3870
7070
F8F8
F8F8
ENDCHAR

STARTCHAR AE
ENCODING 198
SWIDTH 980 0
DWIDTH 17 0
BBX 19 14 -1 0
BITMAP
00FFE0
00FFE0
0078C0
00F8C0
01F000
037000
077F00
0E7F00
0FF000
1FE000
38E180
70E380
F9FF00
F9FF00
ENDCHAR

STARTCHAR Ccedilla
ENCODING 199
SWIDTH 760 0
DWIDTH 14 0
BBX 14 18 1 -4
BITMAP
07CC
1FFC
3E7C
381C
7000
E000
E000
E000
E000
E038
7038
78F0
3FE0
0F80
0600
0300
0900
0600
ENDCHAR

STARTCHAR Egrave
ENCODING 200
SWIDTH 580 0
DWIDTH 11 0
BBX 12 19 0 0
BITMAP
0400
0F00
03C0
0080
0000
3FF0
3FF0
1C60
1C60
3800
3800
3F80
3F80
3800
7000
70C0
71C0
FF80
FF80
ENDCHAR

STARTCHAR Eacute
ENCODING 201
SWIDTH 580 0
DWIDTH 11 0
BBX 12 19 0 0
BITMAP
0020
00F0
03C0
0100
0000
3FF0
3FF0
1C60
1C60
3800
3800
3F80
3F80
3800
7000
70C0
71C0
FF80
FF80
ENDCHAR

STARTCHAR Ecircumflex
ENCODING 202
SWIDTH 580 0
DWIDTH 11 0
BBX 12 19 0 0
BITMAP
0080
03C0
06E0
0C70
0000
3FF0
3FF0
1C60
1C60
3800
3800
3F80
3F80
3800
7000
70C0
71C0
FF80
FF80
ENDCHAR

STARTCHAR Edieresis
ENCODING 203
SWIDTH 580 0
DWIDTH 11 0
BBX 12 18 0 0
BITMAP
0CC0
0CC0
0CC0
0000
3FF0
3FF0
1C60
1C60
3800
3800
3F80
3F80
3800
7000
70C0
71C0
FF80
FF80
ENDCHAR

STARTCHAR Igrave
ENCODING 204
SWIDTH 340 0
DWIDTH 6 0
BBX 7 19 0 0
BITMAP
20
78
1E
04
00
3E
3E
1C
1C
18
38
38
38
30
70
70
70
F8
F8
ENDCHAR

STARTCHAR Iacute
ENCODING 205
SWIDTH 340 0
DWIDTH 6 0
BBX 9 19 0 0
BITMAP
0100
0780
1E00
0800
0000
3E00
3E00
1C00
1C00
1800
3800
3800
3800
3000
7000
7000
7000
F800
F800
ENDCHAR

STARTCHAR Icircumflex
ENCODING 206
SWIDTH 340 0
DWIDTH 6 0
BBX 10 19 0 0
BITMAP
0200
0F00
1B80
31C0
0000
3E00
3E00
1C00
1C00
1800
3800
3800
3800
3000
7000
7000
7000
F800
F800
ENDCHAR

STARTCHAR Idieresis
ENCODING 207
SWIDTH 340 0
DWIDTH 6 0
BBX 8 18 0 0
BITMAP
33
33
33
00
3E
3E
1C
1C
18
38
38
38
30
70
70
70
F8
F8
ENDCHAR

STARTCHAR Eth
ENCODING 208
SWIDTH 740 0
DWIDTH 14 0
BBX 14 14 0 0
BITMAP
3FE0
3FF8
1C38
1C1C
181C
381C
FF1C
FF1C
381C
3038
7070
71F0
FFE0
FF80
ENDCHAR

STARTCHAR Ntilde
ENCODING 209
SWIDTH 800 0
DWIDTH 15 0
BBX 16 18 0 0
BITMAP
0188
03F8
0230
0000
3C1F
3E1F
1E0E
1F0E
1F0C
1B9C
3B9C
39D8
31D8
70F8
70F8
7078
F830
F830
ENDCHAR

STARTCHAR Ograve
ENCODING 210
SWIDTH 780 0
DWIDTH 15 0
BBX 14 19 1 0
BITMAP
0400
0F00
03C0
0080
0000
07C0
1FF0
3E78
3838
701C
E01C
E01C
E01C
E01C
E038
7070
79F0
3FE0
0F80
ENDCHAR

STARTCHAR Oacute
ENCODING 211
SWIDTH 780 0
DWIDTH 15 0
BBX 14 19 1 0
BITMAP
0010
0078
01E0
0080
0000
07C0
1FF0
3E78
3838
701C
E01C
E01C
E01C
E01C
E038
7070
79F0
3FE0
0F80
ENDCHAR

STARTCHAR Ocircumflex
ENCODING 212
SWIDTH 780 0
DWIDTH 15 0
BBX 14 19 1 0
BITMAP
0040
01E0
0370
0638
0000
07C0
1FF0
3E78
3838
701C
E01C
E01C
E01C
E01C
E038
7070
79F0
3FE0
0F80
ENDCHAR

STARTCHAR Otilde
ENCODING 213
SWIDTH 780 0
DWIDTH 15 0
BBX 14 18 1 0
BITMAP
0310
07F0
0460
0000
07C0
1FF0
3E78
3838
701C
E01C
E01C
E01C
E01C
E038
7070
79F0
3FE0
0F80
ENDCHAR

STARTCHAR Odieresis
ENCODING 214
SWIDTH 780 0
DWIDTH 15 0
BBX 14 18 1 0
BITMAP
0660
0660
0660
0000
07C0
1FF0
3E78
3838
701C
E01C
E01C
E01C
E01C
E038
7070
79F0
3FE0
0F80
ENDCHAR

STARTCHAR multiply
ENCODING 215
SWIDTH 660 0
DWIDTH 12 0
BBX 11 10 1 0
BITMAP
6060
70E0
39C0
1F80
0F00
1E00
3F00
7380
E1C0
C0C0
ENDCHAR

STARTCHAR Oslash
ENCODING 216
SWIDTH 780 0
DWIDTH 15 0
BBX 14 14 1 0
BITMAP
07CC
1FFC
3C78
7878
70FC
E1DC
E39C
E71C
EE1C
FC38
7878
78F0
FFE0
CF80
ENDCHAR

STARTCHAR Ugrave
ENCODING 217
SWIDTH 700 0
DWIDTH 13 0
BBX 13 19 1 0
BITMAP
0400
0F00
03C0
0080
0000
7CF8
7CF8
3870
3870
3060
70E0
70E0
70E0
E0C0
E1C0
E1C0
F380
7F80
3E00
ENDCHAR

STARTCHAR Uacute
ENCODING 218
SWIDTH 700 0
DWIDTH 13 0
BBX 13 19 1 0
BITMAP
0020
00F0
03C0
0100
0000
7CF8
7CF8
3870
3870
3060
70E0
70E0
70E0
E0C0
E1C0
E1C0
F380
7F80
3E00
ENDCHAR

STARTCHAR Ucircumflex
ENCODING 219
SWIDTH 700 0
DWIDTH 13 0
BBX 13 19 1 0
BITMAP
0080
03C0
06E0
0C70
0000
7CF8
7CF8
3870
3870
3060
70E0
70E0
70E0
E0C0
E1C0
E1C0
F380
7F80
3E00
ENDCHAR

STARTCHAR Udieresis
ENCODING 220
SWIDTH 700 0
DWIDTH 13 0
BBX 13 18 1 0
BITMAP
0660
0660
0660
0000
7CF8
7CF8
3870
3870
3060
70E0
70E0
70E0
E0C0
E1C0
E1C0
F380
7F80
3E00
ENDCHAR

STARTCHAR Yacute
ENCODING 221
SWIDTH 680 0
DWIDTH 13 0
BBX 13 19 1 0
BITMAP
0020
00F0
03C0
0100
0000
F8F8
F8F8
7070
38E0
39C0
3B80
1F00
1E00
0E00
0C00
0C00
1C00
3E00
3E00
ENDCHAR

STARTCHAR Thorn
ENCODING 222
SWIDTH 600 0
DWIDTH 11 0
BBX 12 14 0 0
BITMAP
3E00
3C00
1F80
1FE0
18F0
1870
3870
3070
30E0
3FC0
7F00
7000
F800
F800
ENDCHAR

STARTCHAR germandbls
ENCODING 223
SWIDTH 600 0
DWIDTH 11 0
BBX 11 14 0 0
BITMAP
0780
0FC0
1CE0
1CE0
18E0
19C0
3B00
3380
31C0
31C0
71C0
77C0
F780
F300
ENDCHAR

STARTCHAR agrave
ENCODING 224
SWIDTH 660 0
DWIDTH 12 0
BBX 12 15 0 0
BITMAP
0800
1E00
0780
0100
0000
0FB0
3FF0
79F0
70E0
E0E0
E0C0
E1C0
F3C0
7FE0
3EE0
ENDCHAR

STARTCHAR aacute
ENCODING 225
SWIDTH 660 0
DWIDTH 12 0
BBX 12 15 0 0
BITMAP
0080
03C0
0F00
0400
0000
0FB0
3FF0
79F0
70E0
E0E0
E0C0
E1C0
F3C0
7FE0
3EE0
ENDCHAR

STARTCHAR acircumflex
ENCODING 226
SWIDTH 660 0
DWIDTH 12 0
BBX 12 15 0 0
BITMAP
0080
03C0
06E0
0C70
0000
0FB0
3FF0
79F0
70E0
E0E0
E0C0
E1C0
F3C0
7FE0
3EE0
ENDCHAR

STARTCHAR atilde
ENCODING 227
SWIDTH 660 0
DWIDTH 12 0
BBX 12 14 0 0
BITMAP
0C40
1FC0
1180
0000
0FB0
3FF0
79F0
70E0
E0E0
E0C0
E1C0
F3C0
7FE0
3EE0
ENDCHAR

STARTCHAR adieresis
ENCODING 228
SWIDTH 660 0
DWIDTH 12 0
BBX 12 14 0 0
BITMAP
0CC0
0CC0
0CC0
0000
0FB0
3FF0
79F0
70E0
E0E0
E0C0
E1C0
F3C0
7FE0
3EE0
ENDCHAR

STARTCHAR aring
ENCODING 229
SWIDTH 660 0
DWIDTH 12 0
BBX 12 16 0 0
BITMAP
0380
06C0
0440
06C0
0380
0000
0FB0
3FF0
79F0
70E0
E0E0
E0C0
E1C0
F3C0
7FE0
3EE0
ENDCHAR

STARTCHAR ae
ENCODING 230
SWIDTH 1040 0
DWIDTH 19 0
BBX 19 10 0 0
BITMAP
0F7780
3FFFC0
7879E0
7070E0
E07FE0
E0FFC0
E0E000
F3F1C0
7FFF80
3EDE00
ENDCHAR

STARTCHAR ccedilla
ENCODING 231
SWIDTH 580 0
DWIDTH 11 0
BBX 11 14 0 -4
BITMAP
0F60
3FE0
79E0
7000
6000
E000
E1C0
F1C0
7F80
3E00
0C00
0600
1200
0C00
ENDCHAR

STARTCHAR egrave
ENCODING 232
SWIDTH 580 0
DWIDTH 11 0
BBX 11 15 0 0
BITMAP
0800
1E00
0780
0100
0000
0F80
3FC0
79E0
70E0
FFE0
FFC0
E000
F1C0
7F80
3E00
ENDCHAR

STARTCHAR eacute
ENCODING 233
SWIDTH 580 0
DWIDTH 11 0
BBX 11 15 0 0
BITMAP
0080
03C0
0F00
0400
0000
0F80
3FC0
79E0
70E0
FFE0
FFC0
E000
F1C0
7F80
3E00
ENDCHAR

STARTCHAR ecircumflex
ENCODING 234
SWIDTH 580 0
DWIDTH 11 0
BBX 11 15 0 0
BITMAP
0100
0780
0DC0
18E0
0000
0F80
3FC0
79E0
70E0
FFE0
FFC0
E000
F1C0
7F80
3E00
ENDCHAR

STARTCHAR edieresis
ENCODING 235
SWIDTH 580 0
DWIDTH 11 0
BBX 11 14 0 0
BITMAP
0CC0
0CC0
0CC0
0000
0F80
3FC0
79E0
70E0
FFE0
FFC0
E000
F1C0
7F80
3E00
ENDCHAR

STARTCHAR igrave
ENCODING 236
SWIDTH 300 0
DWIDTH 6 0
BBX 6 15 0 0
BITMAP
40
F0
3C
08
00
78
78
38
38
30
70
70
70
F8
F8
ENDCHAR

STARTCHAR iacute
ENCODING 237
SWIDTH 300 0
DWIDTH 6 0
BBX 7 15 0 0
BITMAP
04
1E
78
20
00
78
78
38
38
30
70
70
70
F8
F8
ENDCHAR

STARTCHAR icircumflex
ENCODING 238
SWIDTH 300 0
DWIDTH 6 0
BBX 7 15 0 0
BITMAP
08
3C
6E
C6
00
78
78
38
38
30
70
70
70
F8
F8
ENDCHAR

STARTCHAR idieresis
ENCODING 239
SWIDTH 300 0
DWIDTH 6 0
BBX 6 14 0 0
BITMAP
CC
CC
CC
00
78
78
38
38
30
70
70
70
F8
F8
ENDCHAR

STARTCHAR eth
ENCODING 240
SWIDTH 580 0
DWIDTH 11 0
BBX 11 14 0 0
BITMAP
39C0
1F00
7700
0380
0FC0
3FC0
79E0
70E0
E0E0
E0E0
E1C0
F3C0
7F80
3E00
ENDCHAR

STARTCHAR ntilde
ENCODING 241
SWIDTH 640 0
DWIDTH 12 0
BBX 11 14 0 0
BITMAP
0C40
1FC0
1180
0000
7B80
7FC0
3DE0
38E0
30C0
71C0
71C0
71C0
FBE0
FBE0
ENDCHAR

STARTCHAR ograve
ENCODING 242
SWIDTH 580 0
DWIDTH 11 0
BBX 11 15 0 0
BITMAP
1000
3C00
0F00
0200
0000
0F80
3FC0
79E0
70E0
E0E0
E0E0
E1C0
F3C0
7F80
3E00
ENDCHAR

STARTCHAR oacute
ENCODING 243
SWIDTH 580 0
DWIDTH 11 0
BBX 11 15 0 0
BITMAP
0080
03C0
0F00
0400
0000
0F80
3FC0
79E0
70E0
E0E0
E0E0
E1C0
F3C0
7F80
3E00
ENDCHAR

STARTCHAR ocircumflex
ENCODING 244
SWIDTH 580 0
DWIDTH 11 0
BBX 11 15 0 0
BITMAP
0200
0F00
1B80
31C0
0000
0F80
3FC0
79E0
70E0
E0E0
E0E0
E1C0
F3C0
7F80
3E00
ENDCHAR

STARTCHAR otilde
ENCODING 245
SWIDTH 580 0
DWIDTH 11 0
BBX 11 14 0 0
BITMAP
0C40
1FC0
1180
0000
0F80
3FC0
79E0
70E0
E0E0
E0E0
E1C0
F3C0
7F80
3E00
ENDCHAR

STARTCHAR odieresis
ENCODING 246
SWIDTH 580 0
DWIDTH 11 0
BBX 11 14 0 0
BITMAP
1980
1980
1980
0000
0F80
3FC0
79E0
70E0
E0E0
E0E0
E1C0
F3C0
7F80
3E00
ENDCHAR

STARTCHAR divide
ENCODING 247
SWIDTH 660 0
DWIDTH 12 0
BBX 10 10 1 0
BITMAP
0600
0600
0600
0000
FFC0
FFC0
0000
1800
1800
1800
ENDCHAR

STARTCHAR oslash
ENCODING 248
SWIDTH 600 0
DWIDTH 11 0
BBX 11 12 0 -1
BITMAP
0060
0FE0
3FC0
7BE0
7360
E660
CCE0
D8C0
FBC0
7F80
FE00
C000
ENDCHAR

STARTCHAR ugrave
ENCODING 249
SWIDTH 640 0
DWIDTH 12 0
BBX 10 15 1 0
BITMAP
1000
3C00
0F00
0200
0000
F3C0
F3C0
71C0
6180
6180
E380
E380
F700
7F80
3B80
ENDCHAR

STARTCHAR uacute
ENCODING 250
SWIDTH 640 0
DWIDTH 12 0
BBX 10 15 1 0
BITMAP
0100
0780
1E00
0800
0000
F3C0
F3C0
71C0
6180
6180
E380
E380
F700
7F80
3B80
ENDCHAR

STARTCHAR ucircumflex
ENCODING 251
SWIDTH 640 0
DWIDTH 12 0
BBX 10 15 1 0
BITMAP
0200
0F00
1B80
31C0
0000
F3C0
F3C0
71C0
6180
6180
E380
E380
F700
7F80
3B80
ENDCHAR

STARTCHAR udieresis
ENCODING 252
SWIDTH 640 0
DWIDTH 12 0
BBX 10 14 1 0
BITMAP
1980
1980
1980
0000
F3C0
F3C0
71C0
6180
6180
E380
E380
F700
7F80
3B80
ENDCHAR

STARTCHAR yacute
ENCODING 253
SWIDTH 600 0
DWIDTH 10 0
BBX 12 19 0 -4
BITMAP
0040
01E0
0780
0200
0000
FDF0
FDF0
71C0
3180
3380
3300
3E00
3E00
1C00
1800
3800
3000
F800
F800
ENDCHAR

STARTCHAR thorn
ENCODING 254
SWIDTH 660 0
DWIDTH 12 0
BBX 13 18 -1 -4
BITMAP
1E00
1E00
0E00
0C00
0CE0
1FF0
1E78
1C38
1C38
1838
3870
3CF0
3FE0
33C0
7000
7000
F800
F800
ENDCHAR

STARTCHAR ydieresis
ENCODING 255
SWIDTH 600 0
DWIDTH 10 0
BBX 12 18 0 -4
BITMAP
1980
1980
1980
0000
FDF0
FDF0
71C0
3180
3380
3300
3E00
3E00
1C00
1800
3800
3000
F800
F800
ENDCHAR
ENDFONT
